# xmcd
#
# Track frame offsets: 
#        150
#        16427
#        34227
#        48027
#        64848
#
# Disc length: 1036 seconds
#
# Revision: 0
# Processed by: cddbd v1.5.2PL0 Copyright (c) Steve Scherf et al.
# Submitted via: ExactAudioCopyFreeDBPlugin 1.0
#
DISCID=39040a05
DTITLE=Brad St Jean - Farrell Town
DYEAR=2011
DGENRE=Country
TTITLE0=Farrell Town
TTITLE1=Restart The Fire
TTITLE2=She's Gone
TTITLE3=Rebel Daughter
TTITLE4=Hell Bound
EXTD=
EXTT0=
EXTT1=
EXTT2=
EXTT3=
EXTT4=
PLAYORDER=
